<svg width="34" height="34" viewBox="0 0 34 34" fill="none" xmlns="http://www.w3.org/2000/svg">
<path d="M29.0209 4.97914C25.8099 1.76827 21.5409 0 17 0C12.4591 0 8.19008 1.76827 4.97914 4.97914C1.7682 8.19002 0 12.4591 0 17C0 21.5409 1.76827 25.8099 4.97914 29.0209C8.19002 32.2318 12.4591 34 17 34C21.5409 34 25.8099 32.2317 29.0209 29.0209C32.2318 25.81 34 21.5409 34 17C34 12.4591 32.2317 8.19008 29.0209 4.97914ZM17.0013 28.6875C16.4146 28.6875 15.9385 28.2118 15.9385 27.625C15.9385 27.0382 16.4138 26.5625 17.0007 26.5625H17.0013C17.5881 26.5625 18.0638 27.0382 18.0638 27.625C18.0638 28.2118 17.5881 28.6875 17.0013 28.6875ZM20.3809 17.7779C18.8858 19.273 18.0625 21.2608 18.0625 23.375C18.0625 23.9618 17.5868 24.4375 17 24.4375C16.4132 24.4375 15.9375 23.9618 15.9375 23.375C15.9375 20.6931 16.9819 18.1718 18.8783 16.2754C20.0651 15.0885 20.7188 13.5106 20.7188 11.8321C20.7188 9.99474 19.224 8.5 17.3867 8.5H17.1446C15.3072 8.5 13.8125 9.99474 13.8125 11.8321V12.2188C13.8125 12.8055 13.3368 13.2812 12.75 13.2812C12.1632 13.2812 11.6875 12.8055 11.6875 12.2188V11.8321C11.6875 8.823 14.1355 6.375 17.1446 6.375H17.3867C20.3958 6.375 22.8438 8.823 22.8438 11.8321C22.8438 14.0781 21.9691 16.1898 20.3809 17.7779Z" fill="#E82934"/>
</svg>
