<svg width="15" height="29" viewBox="0 0 15 29" fill="none" xmlns="http://www.w3.org/2000/svg">
<path d="M13.7131 21.1455C13.2697 20.7042 12.5525 20.7059 12.1111 21.1493L8.15624 25.1233V1.13281C8.15624 0.50716 7.64908 0 7.02343 0C6.39778 0 5.89062 0.50716 5.89062 1.13281V25.1234L1.93575 21.1493C1.4944 20.7058 0.777162 20.7041 0.333722 21.1455C-0.109774 21.5869 -0.111416 22.3041 0.329871 22.7476L6.22049 28.6667C6.22083 28.6671 6.22123 28.6674 6.22157 28.6677C6.66291 29.1101 7.38248 29.1115 7.82529 28.6678C7.82563 28.6674 7.82603 28.6671 7.82637 28.6668L13.717 22.7476C14.1582 22.3042 14.1567 21.5869 13.7131 21.1455Z" fill="white"/>
</svg>
