<svg width="34" height="34" viewBox="0 0 34 34" fill="none" xmlns="http://www.w3.org/2000/svg">
<g clip-path="url(#clip0)">
<path d="M10.9457 27.3984H0.398438C0.178367 27.3984 0 27.2201 0 27V24.6616H10.9457V27.3984Z" fill="#FF5A51"/>
<path d="M33.6016 27.3984H23.0543V24.6616H34V27C34 27.22 33.8216 27.3984 33.6016 27.3984Z" fill="#FF5A51"/>
<path d="M33.6015 27.3984H31.9477V24.6616H34V27C34 27.22 33.8216 27.3984 33.6015 27.3984Z" fill="#A85759"/>
<path d="M24.2635 31.0117H9.73648C9.51641 31.0117 9.33804 30.8334 9.33804 30.6133V28.277H24.662V30.6133C24.662 30.8334 24.4836 31.0117 24.2635 31.0117Z" fill="#A85759"/>
<path d="M24.2635 31.0117H22.6097V28.277H24.662V30.6133C24.662 30.8334 24.4836 31.0117 24.2635 31.0117Z" fill="#53575D"/>
<path d="M5.47255 14.1269C7.26721 14.1269 8.72207 12.672 8.72207 10.8773C8.72207 9.08267 7.26721 7.62781 5.47255 7.62781C3.67788 7.62781 2.22302 9.08267 2.22302 10.8773C2.22302 12.672 3.67788 14.1269 5.47255 14.1269Z" fill="#FFD681"/>
<path d="M10.9457 25.0724H0V19.5995C0 16.577 2.45026 14.1267 5.47281 14.1267C8.49535 14.1267 10.9456 16.577 10.9456 19.5995L10.9457 25.0724Z" fill="#FF993B"/>
<path d="M5.4728 14.1267C5.12191 14.1267 4.77919 14.1611 4.44662 14.2242C6.9785 14.7047 8.89332 16.9279 8.89332 19.5996V25.0724H10.9456V19.5996C10.9457 16.577 8.49541 14.1267 5.4728 14.1267Z" fill="#FF7B48"/>
<path d="M28.5275 14.1269C30.3221 14.1269 31.777 12.672 31.777 10.8773C31.777 9.08267 30.3221 7.62781 28.5275 7.62781C26.7328 7.62781 25.278 9.08267 25.278 10.8773C25.278 12.672 26.7328 14.1269 28.5275 14.1269Z" fill="#FFD681"/>
<path d="M34 25.0724H23.0543V19.5995C23.0543 16.577 25.5046 14.1267 28.5271 14.1267C31.5497 14.1267 33.9999 16.577 33.9999 19.5995V25.0724H34Z" fill="#FF993B"/>
<path d="M28.5272 14.1267C28.1763 14.1267 27.8336 14.1611 27.501 14.2242C30.0329 14.7047 31.9477 16.9279 31.9477 19.5996V25.0724H34V19.5996C34 16.577 31.5498 14.1267 28.5272 14.1267Z" fill="#FF7B48"/>
<path d="M7.07373 18.163H3.87195C3.66941 18.163 3.54138 18.3805 3.63973 18.5576L5.24058 21.4392C5.34179 21.6213 5.60376 21.6213 5.70496 21.4392L7.30582 18.5576C7.4043 18.3806 7.27627 18.163 7.07373 18.163Z" fill="#FFBD2A"/>
<path d="M30.128 18.163H26.9263C26.7237 18.163 26.5957 18.3805 26.694 18.5576L28.2949 21.4392C28.3961 21.6213 28.6581 21.6213 28.7593 21.4392L30.3601 18.5576C30.4586 18.3806 30.3306 18.163 30.128 18.163Z" fill="#FFBD2A"/>
<path d="M24.662 28.6878H9.33804V21.036C9.33804 16.8063 12.7669 13.3774 16.9966 13.3774H17.0034C21.2331 13.3774 24.662 16.8063 24.662 21.036V28.6878Z" fill="#FF5A51"/>
<path d="M17 13.3774C16.652 13.3774 16.3095 13.4011 15.9738 13.446C19.7201 13.947 22.6097 17.1524 22.6097 21.0326V28.6878H24.6619V21.0326C24.6619 16.8047 21.2316 13.3774 17 13.3774Z" fill="#E75955"/>
<path d="M14.4921 26.4248L11.6852 26.934C11.5977 26.9498 11.5162 26.9238 11.4574 26.8725V26.8719C11.389 26.813 11.3514 26.7201 11.3698 26.6189L11.8795 23.8152L13.0404 24.9751H13.0411L14.4921 26.4248Z" fill="#FFBD2A"/>
<path d="M20.9254 19.5138L18.797 17.3873L19.1849 16.9997C19.7723 16.4129 20.7241 16.4129 21.3114 16.9997C21.8995 17.5873 21.8995 18.5405 21.3114 19.1281L20.9254 19.5138Z" fill="#FFD681"/>
<path d="M21.3124 17.0005C21.0222 16.7106 20.643 16.5644 20.2627 16.5608C20.2664 16.9505 20.1201 17.3412 19.8225 17.6386L19.4355 18.0252L20.9254 19.5137L21.3124 19.1271C21.9002 18.5399 21.9002 17.5878 21.3124 17.0005Z" fill="#FFBD2A"/>
<path d="M19.9246 20.9967L14.4918 26.4249L11.8796 23.8151L17.3124 18.387L19.9246 20.9967Z" fill="#FFD681"/>
<path d="M19.9246 20.9968L14.4918 26.425L13.0406 24.9751L18.4734 19.547L19.9246 20.9968Z" fill="#FFBD2A"/>
<path d="M21.1243 20.0883L20.0489 21.1628C19.9452 21.2664 19.7771 21.2664 19.6735 21.1628L17.1469 18.6384C17.043 18.5347 17.043 18.3664 17.1469 18.2626L18.2222 17.1882C18.326 17.0846 18.494 17.0846 18.5977 17.1882L21.1243 19.7125C21.2282 19.8163 21.2282 19.9846 21.1243 20.0883Z" fill="#FFBD2A"/>
<path d="M21.1244 20.0882L20.049 21.1627C19.9452 21.2663 19.7772 21.2663 19.6735 21.1627L18.4101 19.9004L19.8612 18.4504L21.1244 19.7124C21.2282 19.8162 21.2282 19.9845 21.1244 20.0882Z" fill="#FF993B"/>
<path d="M14.4921 26.4246L11.6852 26.9338C11.5976 26.9496 11.5162 26.9236 11.4574 26.8723V26.8717L13.0404 24.975H13.0411L14.4921 26.4246Z" fill="#FF993B"/>
<path d="M17 13.3477C19.8607 13.3477 22.1797 11.0286 22.1797 8.16797C22.1797 5.30731 19.8607 2.98828 17 2.98828C14.1393 2.98828 11.8203 5.30731 11.8203 8.16797C11.8203 11.0286 14.1393 13.3477 17 13.3477Z" fill="#FFD681"/>
</g>
<defs>
<clipPath id="clip0">
<rect width="34" height="34" fill="white"/>
</clipPath>
</defs>
</svg>
