<svg width="66" height="66" viewBox="0 0 66 66" fill="none" xmlns="http://www.w3.org/2000/svg">
<g clip-path="url(#clip0)">
<path d="M16.5332 22.7619C16.5332 22.7619 16.799 26.1082 19.074 30.11C19.074 30.11 28.5901 7.64073 46.9028 13.2416C34.0413 26.1289 41.0327 35.8203 49.0744 29.7229C50.4454 40.6803 42.2586 44.8879 42.2586 44.8879C44.4227 46.5725 47.8727 45.1264 47.8727 45.1264C47.7094 45.4538 47.537 45.7789 47.3535 46.1007C42.0197 55.4514 30.1154 58.7078 20.7646 53.3738C11.4138 48.0399 8.15749 36.1357 13.4914 26.7849C14.3482 25.2828 15.3753 23.939 16.5332 22.7619Z" fill="#FF6536"/>
<path d="M47.8728 45.1262C47.8728 45.1262 44.4229 46.5724 42.2588 44.8878C42.2588 44.8878 50.4455 40.6802 49.0746 29.7228C41.0328 35.8202 34.0414 26.1288 46.9029 13.2415C45.9221 12.9415 44.9668 12.7227 44.0366 12.5759L20.7647 53.3737C30.1155 58.7076 42.0197 55.4513 47.3536 46.1005C47.5372 45.7787 47.7095 45.4536 47.8728 45.1262Z" fill="#FF421D"/>
<path d="M17.5749 41.713C15.2357 45.8139 16.6638 51.0347 20.7646 53.3739C24.8655 55.7131 30.0863 54.285 32.4255 50.1841C33.6775 47.9892 33.8503 45.4734 33.1116 43.2504C28.016 45.5131 27.2997 37.263 32.9525 34.7612C32.9525 34.7612 23.7265 30.9286 17.5749 41.713Z" fill="#FBBF00"/>
<path d="M32.4255 50.1839C33.6775 47.989 33.8503 45.4732 33.1116 43.2502C28.016 45.5129 27.2997 37.2628 32.9525 34.761C32.9525 34.761 32.4511 34.553 31.6047 34.3701L20.7646 53.3737C24.8655 55.7129 30.0863 54.2848 32.4255 50.1839Z" fill="#FFA900"/>
</g>
<defs>
<clipPath id="clip0">
<rect width="47.8106" height="47.8106" fill="white" transform="translate(23.6892) rotate(29.7014)"/>
</clipPath>
</defs>
</svg>
