<svg width="32" height="32" viewBox="0 0 32 32" fill="none" xmlns="http://www.w3.org/2000/svg">
<path d="M7.84779 22.2319H7.84029C7.32441 22.2319 6.9046 22.6526 6.9046 23.1694V32.0001H8.78341V23.1694C8.78348 22.6526 8.36366 22.2319 7.84779 22.2319Z" fill="#E82934"/>
<path d="M15.9726 20.9631H15.9651C15.4492 20.9631 15.0294 21.3838 15.0294 21.9006V32H16.9082V21.9006C16.9083 21.3838 16.4885 20.9631 15.9726 20.9631Z" fill="#E82934"/>
<path d="M24.1597 22.2319H24.1522C23.6364 22.2319 23.2166 22.6526 23.2166 23.1694V32.0001H25.0954V23.1694C25.0954 22.6526 24.6756 22.2319 24.1597 22.2319Z" fill="#E82934"/>
<path d="M16 13.0337C16.5188 13.0337 16.9394 12.614 16.9394 12.0962C16.9394 11.5784 16.5188 11.1587 16 11.1587C15.4811 11.1587 15.0605 11.5784 15.0605 12.0962C15.0605 12.614 15.4811 13.0337 16 13.0337Z" fill="#E82934"/>
<path d="M21.3726 16.5125H32V14.2719C32 13.8813 31.758 13.5312 31.3924 13.3938L16.9357 7.967V5.625H22.0744C22.5909 5.625 23.0101 5.205 23.0101 4.6875V1.5625C23.0101 1.045 22.5909 0.625 22.0744 0.625H16.8813C16.7526 0.26125 16.407 0 16 0C15.4835 0 15.0643 0.42 15.0643 0.9375V7.96681L0.6275 13.3862L0.606938 13.3944C0.242 13.5312 0 13.8813 0 14.2719V16.5125H10.6274C11.2038 16.5125 11.6709 16.9806 11.6709 17.5581C11.6709 18.135 11.2037 18.6031 10.6274 18.6031H1.31369V31.0625C1.31369 31.58 1.73288 32 2.24938 32H5.03331V23.1694C5.03331 21.6181 6.29212 20.3569 7.84031 20.3569H7.84781C9.39544 20.3569 10.6548 21.6181 10.6548 23.1694V32H13.1581V21.9006C13.1581 20.35 14.4169 19.0881 15.9651 19.0881H15.9726C17.5208 19.0881 18.7796 20.35 18.7796 21.9006V32H21.3452V23.1694C21.3452 21.6181 22.6046 20.3569 24.1522 20.3569H24.1597C25.7079 20.3569 26.9667 21.6181 26.9667 23.1694V32H29.7506C30.2671 32 30.6863 31.58 30.6863 31.0625V18.6031H21.3726C20.7949 18.6031 20.3291 18.1334 20.3291 17.5581C20.3291 16.9806 20.7962 16.5125 21.3726 16.5125ZM16 14.9087C14.4499 14.9087 13.1892 13.6469 13.1892 12.0962C13.1892 10.545 14.4499 9.28375 16 9.28375C17.5501 9.28375 18.8107 10.545 18.8107 12.0962C18.8107 13.6469 17.5501 14.9087 16 14.9087Z" fill="#E82934"/>
</svg>
