<svg width="38" height="38" viewBox="0 0 38 38" fill="none" xmlns="http://www.w3.org/2000/svg">
<g clip-path="url(#clip0)">
<path d="M38 18.5824C38 28.0539 30.3926 35.8302 20.6916 36.646C20.5584 36.6572 20.4444 36.5509 20.4444 36.4173V34.7559C20.4444 34.6373 20.5351 34.5391 20.6532 34.5281C29.1492 33.7352 35.7885 26.8987 35.7885 18.5824C35.7884 9.73141 28.2721 2.55728 19 2.55728C9.72867 2.55728 2.21157 9.73149 2.21157 18.5824C2.21157 26.3888 8.06068 32.891 15.803 34.3158C17.177 32.7857 17.8297 29.3269 18.0221 26.4155L18.0224 26.4112C18.0342 26.241 17.8552 26.1235 17.7038 26.2021L13.2777 28.4999C13.1929 28.5465 13.0914 28.4885 13.0815 28.3877C13.0181 27.77 12.5692 26.0948 9.50653 27.2607C9.38667 27.3073 9.27831 27.1668 9.34466 27.0507C9.81721 26.2238 10.731 24.2249 9.12935 23.359C9.03777 23.3086 9.02856 23.1727 9.11332 23.1109L10.5775 22.0435C10.5824 22.0395 10.5906 22.0329 10.5955 22.0289C10.9929 21.6639 10.8853 20.9777 10.3935 20.7715L7.25214 19.4551C7.15365 19.4138 7.13532 19.2742 7.21933 19.2062C7.79416 18.7412 9.21864 17.1935 6.71323 14.6944C6.61096 14.5921 6.70411 14.4111 6.83993 14.4494C8.12547 14.8105 11.0065 15.2687 10.7164 12.0122C10.7058 11.89 10.834 11.8106 10.9286 11.8793L14.0998 14.1997C14.6479 14.6005 15.3792 14.1012 15.267 13.4041L14.6037 9.31534C14.5846 9.19548 14.7052 9.10464 14.8052 9.16572C15.3716 9.51239 16.7533 10.0957 17.5656 8.18841C18.2809 6.51091 18.6908 5.54963 18.8763 5.11211C18.9251 4.99908 19.0756 4.99908 19.1236 5.11211C19.3099 5.54963 19.7198 6.51091 20.4344 8.18841C21.2466 10.0958 22.6283 9.51239 23.1955 9.16572C23.2947 9.10464 23.4162 9.19548 23.3963 9.31534L22.7344 13.4041C22.6206 14.1011 23.3527 14.6005 23.9009 14.1997L27.072 11.8793C27.1667 11.8106 27.2942 11.89 27.2835 12.0122C26.9942 15.2687 29.8752 14.8105 31.1607 14.4494C31.2966 14.4112 31.3898 14.5921 31.2867 14.6944C28.782 17.1934 30.2057 18.7412 30.7806 19.2062C30.8654 19.2741 30.8463 19.4138 30.7478 19.4551L27.6064 20.7715C27.1147 20.9778 27.007 21.6639 27.4045 22.0289C27.4094 22.0329 27.4175 22.0395 27.4224 22.0435L28.8866 23.1109C28.9714 23.1727 28.963 23.3087 28.8706 23.359C27.2698 24.2249 28.1835 26.2238 28.6561 27.0507C28.7225 27.1668 28.6141 27.3073 28.4942 27.2607C25.4308 26.0948 24.9819 27.77 24.9185 28.3877C24.9086 28.4885 24.807 28.5465 24.7231 28.4999L20.0993 26.3357C19.9583 26.2697 19.7954 26.3672 19.7878 26.5228C19.777 26.7418 19.7627 26.9757 19.7451 27.2225C19.5985 29.2979 19.2184 32.2718 18.7077 34.7487C18.7077 34.7487 18.1351 37.1538 17.6961 37.5547C17.2984 37.5326 17.1335 36.6346 16.7426 36.5904C16.1884 36.5278 15.6411 36.4422 15.1021 36.3346C6.47811 34.6189 0 27.3225 0 18.5824C0 8.56551 8.50643 0.445312 19 0.445312C29.4936 0.445312 38 8.56551 38 18.5824Z" fill="#E82934"/>
<path d="M14.6318 10.3531C14.6449 10.3424 14.6578 10.3301 14.6708 10.3188C14.6561 10.3279 14.6426 10.3389 14.6318 10.3531Z" fill="#C7232C"/>
<path d="M31.1608 15.6005C30.6253 15.7509 29.8131 15.9179 29.0684 15.8266C29.0629 15.8348 29.0566 15.8429 29.0491 15.8504C26.5444 18.3501 27.9681 19.8979 28.543 20.3629C28.6277 20.4308 28.6087 20.5705 28.5102 20.6118L25.3688 21.9281C24.8756 22.135 24.7687 22.8245 25.1703 23.1887C25.1749 23.1926 25.1795 23.1964 25.1848 23.2002L26.649 24.2668C26.7337 24.3294 26.7254 24.4654 26.633 24.5149C25.1356 25.3256 25.8383 27.126 26.3221 28.0328C26.8366 27.9617 27.5381 28.0486 28.4943 28.4126C28.6142 28.4584 28.7225 28.3187 28.6562 28.2026C28.1836 27.375 27.2698 25.3768 28.8707 24.5102C28.9631 24.4605 28.9714 24.3246 28.8867 24.2621L27.4225 23.1954C27.4171 23.1916 27.4125 23.1878 27.408 23.184C27.0065 22.8198 27.1134 22.1303 27.6065 21.9234L30.7479 20.607C30.8464 20.5658 30.8654 20.4261 30.7807 20.3581C30.2058 19.893 28.7821 18.3454 31.2868 15.8456C31.3898 15.7432 31.2967 15.5622 31.1608 15.6005Z" fill="#C7232C"/>
<path d="M19.7451 28.374C19.5985 30.4493 19.2184 33.4233 18.7077 35.9002C18.7077 35.9002 18.1351 38.3053 17.6961 38.7062C17.2984 38.6841 17.1335 37.7861 16.7426 37.7419C16.1884 37.6793 15.6411 37.5937 15.1021 37.4861C15.1014 37.4464 15.0907 37.4243 15.0685 37.4204C15.3426 36.6194 15.8029 35.4673 15.8029 35.4673C17.177 33.9372 17.8296 30.4784 18.022 27.567L19.7451 28.374Z" fill="#C7232C"/>
<path d="M19 1.59717C18.6109 1.59717 18.225 1.60971 17.8417 1.63168C26.9076 2.1164 34.2747 8.66702 35.5618 17.1014C35.71 17.9579 35.7885 18.8368 35.7885 19.7334C35.7885 20.6037 35.7147 21.4574 35.5748 22.29C34.446 29.94 28.3174 36.0575 20.4443 37.533V37.5691C20.4443 37.7027 20.5584 37.8089 20.6915 37.7977C30.3926 36.9813 38 29.205 38 19.7334C38 9.71663 29.4936 1.59717 19 1.59717Z" fill="#C7232C"/>
<path d="M0.19141 17.1589C0.0662031 18 0 18.8593 0 19.7334C0 20.627 0.0683555 21.5053 0.199129 22.3642C1.33995 28.9679 5.94225 33.7366 12.7975 34.9975C13.3748 35.0929 13.9204 35.0099 13.9204 35.0099C7.13205 32.9558 2.21157 26.8931 2.21157 19.7334C2.21157 11.255 9.1108 4.31514 17.8418 3.74699C17.4848 3.72539 17.1251 3.71307 16.7624 3.71307C8.41091 3.71315 1.48408 9.53516 0.19141 17.1589Z" fill="#C7232C"/>
</g>
<defs>
<clipPath id="clip0">
<rect width="38" height="38" fill="white"/>
</clipPath>
</defs>
</svg>
