<svg width="34" height="34" viewBox="0 0 34 34" fill="none" xmlns="http://www.w3.org/2000/svg">
<path d="M10.3286 7.48393e-10C15.7416 -6.64055e-05 20.1376 4.41914 20.1103 9.83204C20.098 12.289 19.1795 14.5315 17.6723 16.2432C17.5277 16.4074 17.4915 16.6416 17.5864 16.8388C17.9678 17.6311 18.3994 18.2284 18.6911 18.5866C18.8526 18.7849 18.7324 19.0836 18.4789 19.1172C17.3496 19.2664 15.9776 18.6999 15.3859 18.4203C15.2306 18.3469 15.0504 18.3516 14.8987 18.432C13.5701 19.1354 12.0603 19.5421 10.4573 19.5627C5.12563 19.6314 0.615986 15.2414 0.547786 9.90974C0.477993 4.44882 4.88378 6.6407e-05 10.3286 7.48395e-10V7.48393e-10Z" fill="#E82934"/>
<path d="M18.6908 18.5866C18.8523 18.785 18.7325 19.0838 18.4791 19.1172C17.9401 19.1882 17.3468 19.0963 16.8086 18.9508C16.8316 18.9487 16.8546 18.9459 16.8775 18.9431C17.131 18.9097 17.2507 18.611 17.0892 18.4126C16.7982 18.0546 16.3665 17.4572 15.9849 16.6648C15.8902 16.4678 15.9264 16.2331 16.0706 16.0687C17.5781 14.3572 18.4965 12.1151 18.5091 9.65782C18.5328 4.88182 15.1131 0.878719 10.5892 0.00341797C15.8826 0.142672 20.137 4.50649 20.1106 9.83187C20.098 12.2892 19.1796 14.5313 17.6721 16.2428C17.528 16.4072 17.4917 16.6418 17.5864 16.8389C17.968 17.6313 18.3997 18.2287 18.6908 18.5866Z" fill="#FD5426"/>
<path d="M15.3923 11.1006C16.1232 11.1006 16.7158 10.508 16.7158 9.77709C16.7158 9.04615 16.1232 8.45361 15.3923 8.45361C14.6614 8.45361 14.0688 9.04615 14.0688 9.77709C14.0688 10.508 14.6614 11.1006 15.3923 11.1006Z" fill="white"/>
<path d="M10.3287 11.1006C11.0596 11.1006 11.6522 10.508 11.6522 9.77709C11.6522 9.04615 11.0596 8.45361 10.3287 8.45361C9.59776 8.45361 9.00522 9.04615 9.00522 9.77709C9.00522 10.508 9.59776 11.1006 10.3287 11.1006Z" fill="white"/>
<path d="M5.26515 11.1006C5.99609 11.1006 6.58863 10.508 6.58863 9.77709C6.58863 9.04615 5.99609 8.45361 5.26515 8.45361C4.53422 8.45361 3.94168 9.04615 3.94168 9.77709C3.94168 10.508 4.53422 11.1006 5.26515 11.1006Z" fill="white"/>
<path d="M32.8227 6.9586C32.2979 5.70498 31.4669 4.5786 30.3937 3.74387C29.2285 2.83756 27.5617 1.81503 26.0417 2.48149C25.6223 2.66536 25.2815 2.96027 25.0171 3.32418C24.8356 3.57121 24.69 3.85211 24.5769 4.16163C24.5527 4.22737 23.5618 7.36606 23.1943 8.89454C22.9485 9.91792 23.1346 10.624 23.7888 11.1822C23.9933 11.3568 24.2431 11.5171 24.5406 11.6679C25.2443 12.0248 25.9754 12.3244 26.7089 12.6205C26.8113 12.6618 26.9136 12.7029 27.0158 12.7442L27.8777 13.0709L27.5607 13.9756C25.8621 18.732 23.198 22.8627 19.5518 26.3569L18.9551 26.9964L18.1998 26.2788C17.6288 25.6733 17.0732 25.037 16.423 24.5258C15.2765 23.6244 14.3749 23.5719 13.215 24.4485C11.8523 25.4785 10.5075 26.5591 9.30524 27.7673C7.97679 29.1024 8.06956 30.3805 9.37218 31.7457C10.5003 32.928 11.8985 33.6091 13.4979 33.8985C15.5608 34.2718 17.9027 33.5698 19.7068 32.5194C21.2696 31.6094 22.6887 30.5874 23.9737 29.4621L25.7739 27.7277C28.9873 24.322 31.2012 20.1518 32.6255 15.4086C33.4178 12.7697 33.9127 9.56265 32.8227 6.9586Z" fill="#C7232C"/>
<path d="M27.8777 13.0708C28.9009 10.1112 29.8116 7.00103 30.5861 3.8984C30.5232 3.84541 30.4585 3.79414 30.3937 3.74387C29.3451 2.93338 27.9361 2.05543 26.5541 2.32145C25.4875 2.52631 24.8172 3.36742 24.509 4.36119C24.0435 5.86449 23.5619 7.36607 23.1943 8.89454C22.8717 10.2379 23.2923 11.0349 24.5404 11.6675C25.3419 12.0746 26.1812 12.408 27.0159 12.744L27.8777 13.0708Z" fill="#C7232C"/>
<path d="M18.955 26.9964C17.9052 28.0687 16.7997 29.1164 15.6517 30.153C14.382 31.2987 13.1752 32.3329 11.7034 33.3663C10.8372 32.9934 10.0554 32.4614 9.37245 31.7453C8.06949 30.3803 7.97699 29.1026 9.30505 27.7673C10.5073 26.5587 11.8525 25.4786 13.2148 24.4488C14.3748 23.5718 15.2761 23.6248 16.4227 24.5261C17.0732 25.0374 17.6285 25.6736 18.2 26.2783L18.955 26.9964Z" fill="#C7232C"/>
<path d="M32.6255 15.4082C30.4369 22.6965 26.3845 28.6312 19.7067 32.5191C17.9028 33.5699 15.561 34.2716 13.4977 33.8983C11.8983 33.609 10.5005 32.928 9.37198 31.7453C8.83197 31.1789 8.4992 30.6275 8.39096 30.081C8.42018 30.1131 8.45079 30.1458 8.48147 30.1779C9.60998 31.3606 11.0078 32.0417 12.6072 32.3309C14.6705 32.7043 17.0123 32.0025 18.8162 30.9517C25.494 27.0638 29.5463 21.1292 31.735 13.8408C32.5272 11.2019 33.0224 7.99523 31.9324 5.39124C31.9181 5.35778 31.9039 5.32431 31.8889 5.29077C32.253 5.78882 32.5658 6.34378 32.8229 6.95863C33.9129 9.56262 33.4177 12.7694 32.6255 15.4082Z" fill="#E82934"/>
<path d="M12.6072 32.331C11.0078 32.0418 9.60998 31.3606 8.48147 30.1779C8.45086 30.1459 8.42018 30.1131 8.39096 30.0811C8.39169 30.0839 8.39236 30.0868 8.39309 30.0896C8.39807 30.1145 8.40305 30.1402 8.40949 30.1651C8.43798 30.276 8.47536 30.3845 8.518 30.4907C8.60366 30.7039 8.70945 30.9016 8.83834 31.092C8.96299 31.276 9.10164 31.4504 9.25013 31.6156C9.40698 31.7903 9.57392 31.9558 9.74837 32.1128C10.0656 32.3982 10.4015 32.654 10.7648 32.8782C11.0041 33.0258 11.2523 33.1597 11.5079 33.2785C11.5585 33.302 11.609 33.3255 11.6603 33.3469C11.6746 33.354 11.6888 33.3597 11.7031 33.3662C12.1648 33.042 12.6001 32.7186 13.019 32.3909C12.8808 32.3759 12.7433 32.3559 12.6072 32.331Z" fill="#E82934"/>
</svg>
